# WaveFront *.obj file (generated by CINEMA 4D)

mtllib ./dead-tree-2.mtl

v 0.30694401264191 0.90499597787857 -2.03658390045166
v 1.65400803089142 0.90499597787857 -1.16380596160889
v 1.98938000202179 0.90499597787857 0.40586000680923
v 1.11660194396973 0.90499597787857 1.7529239654541
v -0.45306399464607 0.90499597787857 2.08829593658447
v -1.80012905597687 0.90499597787857 1.2155179977417
v -2.13549995422363 0.90499597787857 -0.35414800047874
v -1.26272201538086 0.90499597787857 -1.70121204853058
v -0.07305999845266 4.18939113616943 -1.49444997310638
v 1.00195801258087 4.18939113616943 -1.04916298389435
v 1.44724500179291 4.18939113616943 0.02585499919951
v 1.00195896625519 4.18939113616943 1.10087394714355
v -0.07305999845266 4.18939113616943 1.54616105556488
v -1.14807903766632 4.18939113616943 1.10087394714355
v -1.59336602687836 4.18939113616943 0.02585499919951
v -1.1480770111084 4.18939113616943 -1.04916298389435
v 0.3806320130825 0.0087619824335 -2.43652200698853
v -1.49341595172882 0.0087619824335 -2.03611707687378
v -2.73731398582458 0.0087619824335 -0.57565599679947
v -2.3008770942688 0.0087619824335 1.46703600883484
v -0.547867000103 0.0087619824335 2.60283088684082
v 1.49482595920563 0.0087619824335 2.16639304161072
v 2.63062000274658 0.0087619824335 0.4133839905262
v 1.98891305923462 0.0087619824335 -1.39450001716614
v -0.07305999845266 0.0087619824335 0.02585599943995
v -0.07305999845266 4.26646709442139 -1.09820795059204
v -0.86789202690125 4.26646709442139 -0.76897799968719
v -1.1971230506897 4.26646709442139 0.02585499919951
v -0.86789298057556 4.26646709442139 0.82068800926208
v -0.07305999845266 4.26646709442139 1.14991903305054
v 0.72177302837372 4.26646709442139 0.82068800926208
v 1.05100297927856 4.26646709442139 0.02585499919951
v 0.72177201509476 4.26646709442139 -0.76897698640823
v -0.07305999845266 4.07576179504395 -0.80482000112534
v 0.51431602239609 4.07576179504395 -0.56152099370956
v 0.75761497020721 4.07576179504395 0.02585499919951
v 0.51431602239609 4.07576179504395 0.61323201656342
v -0.07305999845266 4.07576179504395 0.85653102397919
v -0.66043698787689 4.07576179504395 0.61323201656342
v -0.90373599529266 4.07576179504395 0.02585499919951
v -0.66043597459793 4.07576179504395 -0.56152099370956
v -0.07305999845266 2.53535294532776 0.02585599943995
v 1.39190196990967 0.82361799478531 0.67907500267029
v 1.83337604999542 0.09014098346233 0.7729030251503
v 0.53374701738358 0.82361799478531 1.53723001480103
v 0.71661198139191 0.09014098346233 1.88966798782349
v 1.39190196990967 0.82361799478531 -0.57631599903107
v 1.76818096637726 0.09014098346233 -0.73850297927856
v 0.53374701738358 0.82361799478531 -1.4344710111618
v 0.65141600370407 0.09014098346233 -1.71854996681213
v -0.67986702919006 0.82361799478531 -1.4344710111618
v -0.79753702878952 0.09014098346233 -1.71854996681213
v -1.5380220413208 0.82361799478531 -0.57631599903107
v -1.91430103778839 0.09014098346233 -0.73850297927856
v -1.5380220413208 0.82361799478531 0.67907500267029
v -1.97949695587158 0.09014098346233 0.7729030251503
v -0.67986702919006 0.82361799478531 1.53723001480103
v -0.86273199319839 0.09014098346233 1.88966798782349
# 58 vertices

vn -0.45310387015343 0.06653080880642 -0.88897162675858
vn -0.47037079930305 0.16415268182755 -0.86706703901291
vn -0.38046219944954 0.10759411752224 -0.91851621866226
vn 0 0 0
vn -0.94857996702194 0.06716350466013 -0.30933007597923
vn -0.91851562261581 0.10759485512972 -0.38046336174011
vn -0.89372128248215 0.07256067544222 0.44271579384804
vn -0.91851645708084 0.10759434849024 0.38046160340309
vn -0.37548279762268 0.19307304918766 0.90649628639221
vn 0.37548279762268 0.19307281076908 0.90649628639221
vn 0.90649658441544 0.19307315349579 0.37548199295998
vn 0.90649622678757 0.19307279586792 -0.37548300623894
vn 0.37548294663429 0.19307281076908 -0.90649622678757
vn -0.00000003363231 0.98160195350647 -0.19093863666058
vn -0.1350139528513 0.98160195350647 -0.13501416146755
vn -0.19093833863735 0.98160201311111 -0.00000020553077
vn -0.13501378893852 0.98160201311111 0.13501378893852
vn -0.00000000373692 0.98160201311111 0.19093845784664
vn 0.13501393795013 0.98160201311111 0.13501378893852
vn 0.19093850255013 0.98160201311111 -0.0000001121077
vn 0.13501389324665 0.98160201311111 -0.13501390814781
vn -0.22020342946053 0.81785887479782 0.53161758184433
vn -0.53161782026291 0.81785875558853 0.22020344436169
vn -0.53161728382111 0.81785929203033 -0.2202025949955
vn -0.22020325064659 0.81785899400711 -0.53161752223969
vn 0.22020316123962 0.81785893440247 -0.53161770105362
vn 0.531618475914 0.81785839796066 -0.22020314633846
vn 0.53161787986755 0.8178585767746 0.22020387649536
vn 0.22020289301872 0.81785929203033 0.53161716461182
vn -0.34252747893333 0.44593024253845 0.82693481445312
vn -0.82693493366241 0.44592997431755 0.34252744913101
vn -0.82693529129028 0.44592970609665 -0.34252700209618
vn -0.3425275683403 0.44592982530594 -0.82693499326706
vn 0.3425270318985 0.44592988491058 -0.82693517208099
vn 0.8269350528717 0.44593012332916 -0.34252697229385
vn 0.82693427801132 0.44593018293381 0.34252870082855
vn 0.34252747893333 0.44593024253845 0.82693481445312
vn 0.96690541505814 0.08173268288374 0.24168932437897
vn 0.42224076390266 -0.06439473479986 0.9041935801506
vn 0.41491588950157 0.12740944325924 0.9008948802948
vn 0.39229997992516 0.31451815366745 0.86439520120621
vn 0.84371626377106 0.49636033177376 0.20437544584274
vn 0.00365939643234 -0.99997693300247 -0.00571691989899
vn 0.01784251444042 -0.99784350395203 0.06316591054201
vn -0.00652614515275 -0.99894160032272 0.04553118348122
vn -0.04009229317307 -0.99876433610916 0.02936652675271
vn 0.49115577340126 0.08624924719334 0.86679124832153
vn 0.47535306215286 0.27090594172478 0.83704805374146
vn -0.33854776620865 -0.06352704763412 0.9388023018837
vn -0.33713528513908 0.12480285763741 0.93314737081528
vn -0.32375377416611 0.30870199203491 0.89436376094818
vn 0.44280248880386 0.44601792097092 0.77781355381012
vn -0.03404784947634 -0.99773639440536 0.05798944458365
vn -0.05427939072251 -0.99847573041916 -0.01000096462667
vn 0.84868878126144 0.07959177345037 -0.52286952733994
vn 0.91423231363297 -0.08587835729122 0.39598503708839
vn 0.88816124200821 0.31145751476288 0.33788132667542
vn 0.71957951784134 0.49235990643501 -0.48968049883842
vn 0.0607360266149 -0.99734723567963 0.04012059420347
vn 0.03244367614388 -0.99836319684982 0.04709945246577
vn 0.22866840660572 0.07926516234875 -0.97027200460434
vn 0.22469119727612 0.21855211257935 -0.94960457086563
vn 0.92823284864426 -0.08774164319038 -0.36150398850441
vn 0.93031823635101 0.08293062448502 -0.35725405812263
vn 0.90528351068497 0.25118535757065 -0.3425897359848
vn 0.21625524759293 0.3535021841526 -0.91009330749512
vn 0.07712389528751 -0.99691641330719 -0.01447693817317
vn 0.06070338562131 -0.99809318780899 0.0111845722422
vn -0.51346683502197 0.19196371734142 -0.83636218309402
vn 0.42922747135162 0.16144074499607 -0.88865101337433
vn 0.41568845510483 0.20595361292362 -0.88588160276413
vn 0.40124636888504 0.25001907348633 -0.88118773698807
vn -0.49024328589439 0.3535620868206 -0.79665261507034
vn 0.04512279480696 -0.99684858322144 -0.06524454802275
vn 0.05316318944097 -0.99791413545609 -0.03662058338523
vn -0.97143650054932 0.02622180990875 -0.23584634065628
vn -0.32456967234612 0.16140528023243 -0.93198865652084
vn -0.28549361228943 0.26075795292854 -0.92222487926483
vn -0.2431363016367 0.35711359977722 -0.9018617272377
vn -0.87722527980804 0.41371762752533 -0.2435437142849
vn -0.00529450085014 -0.99562883377075 -0.09324784576893
vn 0.0180526394397 -0.99663460254669 -0.07995986193419
vn -0.86381602287292 0.03711212426424 0.5024386048317
vn -0.87745326757431 0.15839685499668 -0.4527539908886
vn -0.86026382446289 0.27953943610191 -0.42638456821442
vn -0.82959723472595 0.3963026702404 -0.3933353126049
vn -0.76581048965454 0.46612840890884 0.44301080703735
vn -0.06135665252805 -0.99696218967438 -0.04797662049532
vn -0.03399050608277 -0.99804002046585 -0.05254349857569
vn -0.26913744211197 0.08691234886646 0.95917218923569
vn -0.26196160912514 0.26466339826584 0.928078353405
vn -0.91791301965714 -0.07723380625248 0.38919234275818
vn -0.86341351270676 0.34342142939568 0.36956578493118
vn -0.24624225497246 0.43378278613091 0.8667163848877
vn -0.07074513286352 -0.99740201234818 0.01357547007501
# 95 normals

vt 0.64376801252365 0.87755101919174 0
vt 0.59122902154922 0.65830600261688 0
vt 0.56756198406219 0.88903301954269 0
vt 0.67149502038956 0.65346801280975 0
vt 0.69918102025986 0.86752301454544 0
vt 0.00326299993321 0.63910001516342 0
vt 0.04787600040436 0.87474596500397 0
vt 0.10572300106287 0.88187998533249 0
vt 0.18270899355412 0.89051496982574 0
vt 0.15508699417114 0.65604501962662 0
vt 0.27667200565338 0.88728898763657 0
vt 0.25556999444962 0.65648204088211 0
vt 0.37312600016594 0.87892997264862 0
vt 0.37015101313591 0.63770699501038 0
vt 0.47168698906898 0.88713300228119 0
vt 0.48629701137543 0.65705502033234 0
vt 0.9327210187912 0.68209004402161 0
vt 0.86810898780823 0.71010601520538 0
vt 0.87067002058029 0.7455530166626 0
vt 0.95702201128006 0.70786303281784 0
vt 0.80100697278976 0.69134199619293 0
vt 0.78018200397491 0.71999901533127 0
vt 0.75866401195526 0.61888098716736 0
vt 0.77294600009918 0.55113303661346 0
vt 0.74290502071381 0.53303098678589 0
vt 0.72420501708984 0.62404298782349 0
vt 0.82703900337219 0.50735402107239 0
vt 0.81522399187088 0.47412598133087 0
vt 0.89662700891495 0.50721800327301 0
vt 0.90854400396347 0.47412598133087 0
vt 0.95080798864365 0.55120301246643 0
vt 0.98094499111176 0.53304302692413 0
vt 0.96519201993942 0.61968499422073 0
vt 1 0.62446904182434 0
vt 0.93705701828003 0.6158350110054 0
vt 0.91324698925018 0.66117602586746 0
vt 0.92671501636505 0.56594002246857 0
vt 0.88724201917648 0.5338060259819 0
vt 0.83642500638962 0.53375101089478 0
vt 0.7970370054245 0.56587702035904 0
vt 0.78645902872086 0.61561304330826 0
vt 0.86614799499512 0.68175303936005 0
vt 0.81679302453995 0.66818600893021 0
vt 0.84938102960587 0.76532804965973 0
vt 0.80336201190948 0.7455530166626 0
vt 0.79745298624039 0.82273805141449 0
vt 0.75486999750137 0.758092045784 0
vt 0.72420501708984 0.79769504070282 0
vt 0.72420501708984 0.84778201580048 0
vt 0.7548760175705 0.8881099820137 0
vt 0.80336499214172 0.90030699968338 0
vt 0.86603498458862 0.85864102840424 0
vt 0.8736600279808 0.80913698673248 0
vt 0.31130400300026 0.64647203683853 0
vt 0.44988998770714 0.1450309753418 0
vt 0.37551799416542 0.09200608730316 0
vt 0.32099398970604 0.13451898097992 0
vt 0.37614399194717 0.16729199886322 0
vt 0.33314999938011 0.02150905132294 0
vt 0.29749500751495 0.08232998847961 0
vt 0.68167901039124 0.25581097602844 0
vt 0.86655700206757 0.2508430480957 0
vt 0.90450000762939 0.15037405490875 0
vt 0.90596401691437 0.33972597122192 0
vt 0.20095700025558 0.6567969918251 0
vt 0.24688500165939 0.02588403224945 0
vt 0.23800200223923 0.09306204319 0
vt 0.15993799269199 0 0
vt 0.18386299908161 0.07371997833252 0
vt 0.81249397993088 0.38354802131653 0
vt 0.77260500192642 0.47412598133087 0
vt 0.42641699314117 0.64581400156021 0
vt 0.44093701243401 0.32153701782227 0
vt 0.42847800254822 0.23186802864075 0
vt 0.35518500208855 0.22603905200958 0
vt 0.36921098828316 0.29441905021667 0
vt 0.80741602182388 0.12690103054047 0
vt 0.76529198884964 0.04587197303772 0
vt 0.54263997077942 0.65775603055954 0
vt 0.32121300697327 0.46374905109406 0
vt 0.36839500069618 0.38744103908539 0
vt 0.30917298793793 0.34463107585907 0
vt 0.27978000044823 0.40087699890137 0
vt 0.67912298440933 0.08519601821899 0
vt 0.59142798185349 0.04863905906677 0
vt 0.63431000709534 0.65462499856949 0
vt 0.14573599398136 0.46641397476196 0
vt 0.23429700732231 0.47412598133087 0
vt 0.23450100421906 0.41772401332855 0
vt 0.18762399256229 0.39846205711365 0
vt 0.55848002433777 0.13775300979614 0
vt 0.47100201249123 0.17407500743866 0
vt 0.70600497722626 0.64559298753738 0
vt 0.74122899770737 0.64535701274872 0
vt 0 0.34532797336578 0
vt 0.0905380025506 0.3941810131073 0
vt 0.1428699940443 0.33491206169128 0
vt 0.07835199683905 0.3026670217514 0
vt 0.50165402889252 0.26010203361511 0
vt 0.45273101329803 0.34718203544617 0
vt 0.04129600152373 0.64133602380753 0
vt 0.07545799762011 0.64880102872849 0
vt 0 0.13456797599792 0
vt 0.01539499964565 0.2364330291748 0
vt 0.09704100340605 0.23093497753143 0
vt 0.08159600198269 0.16563904285431 0
vt 0.54793298244476 0.38354706764221 0
vt 0.58327001333237 0.47412598133087 0
vt 0.44988998770714 0.33971500396729 0
vt 0.11368799954653 0.65099900960922 0
vt 0.08866400271654 0.07155203819275 0
vt 0.14192700386047 0.12919402122498 0
vt 0.68021297454834 0.43864107131958 0
# 113 texture coordinates

o Cylinder
usemtl Mat
f 9/3/3 1/2/2 16/1/1
f 15/5/5 16/1/6 8/4/5
f 14/8/7 15/7/8 7/6/7
f 5/10/9 13/9/9 14/8/9
f 4/12/10 12/11/10 13/9/10
f 3/14/11 11/13/11 12/11/11
f 2/16/12 10/15/12 11/13/12
f 1/2/13 9/3/13 10/15/13
f 9/20/14 16/19/15 27/18/15 26/17/14
f 16/19/15 15/22/16 28/21/16 27/18/15
f 15/26/16 14/25/17 29/24/17 28/23/16
f 14/25/17 13/28/18 30/27/18 29/24/17
f 13/28/18 12/30/19 31/29/19 30/27/18
f 12/30/19 11/32/20 32/31/20 31/29/19
f 11/32/20 10/34/21 33/33/21 32/31/20
f 10/34/21 9/20/14 26/17/14 33/33/21
f 33/33/22 26/17/22 34/36/22 35/35/22
f 32/31/23 33/33/23 35/35/23 36/37/23
f 31/29/24 32/31/24 36/37/24 37/38/24
f 30/27/25 31/29/25 37/38/25 38/39/25
f 29/24/26 30/27/26 38/39/26 39/40/26
f 28/23/27 29/24/27 39/40/27 40/41/27
f 27/18/28 28/21/28 40/43/28 41/42/28
f 26/17/29 27/18/29 41/42/29 34/36/29
f 42/46/30 35/45/30 34/44/30
f 42/46/31 36/47/31 35/45/31
f 42/46/32 37/48/32 36/47/32
f 42/46/33 38/49/33 37/48/33
f 42/46/34 39/50/34 38/49/34
f 42/46/35 40/51/35 39/50/35
f 42/46/36 41/53/36 40/52/36
f 42/46/37 34/44/37 41/53/37
f 4/12/38 43/54/38 12/11/38
f 43/54/40 3/14/40 12/11/39
f 3/58/40 43/57/40 44/56/41 23/55/41
f 43/57/42 4/60/42 22/59/42 44/56/42
f 23/63/45 44/62/44 25/61/43
f 44/62/44 22/64/46 25/61/43
f 5/10/48 45/65/48 13/9/47
f 45/65/50 4/12/50 13/9/49
f 4/60/50 45/67/50 46/66/51 22/59/51
f 45/67/48 5/69/48 21/68/52 46/66/52
f 22/64/46 46/70/53 25/61/43
f 46/70/53 21/71/54 25/61/43
f 3/14/55 47/72/55 11/13/55
f 47/72/56 2/16/56 11/13/56
f 2/76/57 47/75/57 48/74/57 24/73/57
f 47/75/58 3/58/58 23/55/58 48/74/58
f 24/78/60 48/77/59 25/61/43
f 48/77/59 23/63/45 25/61/43
f 2/16/62 49/79/62 10/15/61
f 49/79/64 1/2/64 10/15/63
f 1/83/64 49/82/64 50/81/65 17/80/65
f 49/82/62 2/76/62 24/73/66 50/81/66
f 17/85/68 50/84/67 25/61/43
f 50/84/67 24/78/60 25/61/43
f 1/2/2 51/86/69 16/1/1
f 51/86/71 8/4/71 16/1/70
f 8/90/71 51/89/71 52/88/72 18/87/72
f 51/89/69 1/83/2 17/80/73 52/88/73
f 18/92/75 52/91/74 25/61/43
f 52/91/74 17/85/68 25/61/43
f 8/4/5 53/93/76 15/5/5
f 53/93/78 7/94/78 15/5/77
f 7/98/78 53/97/78 54/96/79 19/95/79
f 53/97/80 8/90/80 18/87/80 54/96/80
f 19/100/82 54/99/81 25/61/43
f 54/99/81 18/92/75 25/61/43
f 7/6/7 55/101/83 14/8/7
f 55/101/85 6/102/85 14/8/84
f 6/106/85 55/105/85 56/104/86 20/103/86
f 55/105/87 7/98/87 19/95/87 56/104/87
f 20/108/89 56/107/88 25/61/43
f 56/107/88 19/109/82 25/61/43
f 6/102/91 57/110/91 14/8/90
f 57/110/92 5/10/92 14/8/92
f 5/69/93 57/112/93 58/111/93 21/68/93
f 57/112/91 6/106/91 20/103/94 58/111/94
f 21/71/54 58/113/95 25/61/43
f 58/113/95 20/108/89 25/61/43

